<svg width="40" height="40" viewBox="0 0 40 40" fill="none" xmlns="http://www.w3.org/2000/svg">
<path fill-rule="evenodd" clip-rule="evenodd" d="M33.2101 10.5581L37.0483 17.9068L37.0483 17.9068L37.0514 17.9127L34.2898 19.2879L30.4475 11.9394L33.2101 10.5581ZM37.609 19.0304L38.1666 20.1502L34.3072 22.0721C33.6978 22.3755 32.9577 22.1356 32.6423 21.5323L27.6423 11.9698C27.4869 11.6726 27.4574 11.3253 27.5606 11.0061C27.6638 10.6869 27.8909 10.4226 28.191 10.2726L32.0937 8.32126C32.6768 8.02571 33.353 7.97187 33.9756 8.17159C34.5995 8.37169 35.119 8.81011 35.4212 9.39136C35.4215 9.39193 35.4217 9.3925 35.422 9.39307L39.2611 16.7435C39.2617 16.7447 39.2623 16.7458 39.2629 16.747C39.4178 17.0407 39.5125 17.3623 39.5417 17.6931C39.571 18.0251 39.5336 18.3597 39.4317 18.677C39.3298 18.9944 39.1654 19.2882 38.9483 19.5411C38.7312 19.794 38.4657 20.001 38.1674 20.1498L37.609 19.0304Z" fill="white"/>
<path fill-rule="evenodd" clip-rule="evenodd" d="M6.79635 10.3895L2.95509 17.7441L5.71124 19.1277L9.55323 11.7679L6.79635 10.3895ZM6.01253 8.01548C6.63125 7.81119 7.30529 7.85653 7.89107 8.14184L7.90278 8.14753L11.809 10.1007C12.1089 10.2507 12.336 10.5148 12.4392 10.8338C12.5425 11.1528 12.5132 11.5 12.3581 11.7972L7.35808 21.3753C7.04218 21.9805 6.29922 22.2203 5.68915 21.914L1.83427 19.9788C1.53771 19.8324 1.27334 19.6283 1.05668 19.3784C0.838499 19.1267 0.673153 18.8337 0.57047 18.5169C0.467788 18.2 0.429866 17.8658 0.458958 17.534C0.487903 17.2039 0.582591 16.8829 0.737431 16.59L4.57858 9.23559C4.57879 9.23518 4.579 9.23478 4.57921 9.23437C4.88002 8.65695 5.39424 8.21963 6.01253 8.01548Z" fill="white"/>
<path fill-rule="evenodd" clip-rule="evenodd" d="M5.26473 20.0277C5.68953 19.4835 6.47504 19.3867 7.01923 19.8115L15.5661 26.4834L15.5848 26.4983L24.5842 28.7482C24.5941 28.7493 24.6041 28.7485 24.6137 28.7459C24.6233 28.7432 24.6322 28.7388 24.64 28.7329L30.3307 23.0422L32.7981 20.143C33.2456 19.6172 34.0345 19.5538 34.5602 20.0012C35.0859 20.4486 35.1494 21.2375 34.702 21.7633L32.202 24.7008C32.1803 24.7262 32.1576 24.7508 32.1339 24.7745L26.3839 30.5245C26.3786 30.5299 26.3731 30.5352 26.3676 30.5405C26.3631 30.5449 26.3585 30.5493 26.3538 30.5536C26.0496 30.8381 25.681 31.0446 25.2796 31.1556C24.8781 31.2665 24.4558 31.2785 24.0487 31.1906C24.0355 31.1877 24.0224 31.1847 24.0094 31.1814L14.9469 28.9158C14.936 28.9131 14.9252 28.9102 14.9144 28.9072C14.588 28.8162 14.2836 28.6599 14.0196 28.4477L5.48089 21.7822C4.9367 21.3574 4.83992 20.5719 5.26473 20.0277Z" fill="white"/>
<path fill-rule="evenodd" clip-rule="evenodd" d="M22.3928 12.6406L16.2849 18.733C16.2839 18.7342 16.2831 18.7356 16.2826 18.7371C16.2818 18.7392 16.2815 18.7414 16.2817 18.7437C16.2818 18.7459 16.2825 18.748 16.2835 18.7499C16.2846 18.7519 16.286 18.7536 16.2878 18.7549L17.1265 19.3917C17.7763 19.8755 18.5648 20.1367 19.375 20.1367C20.1863 20.1367 20.9758 19.8747 21.6261 19.3898C21.6265 19.3895 21.6269 19.3892 21.6274 19.3889L23.625 17.8906C24.064 17.5614 24.6664 17.5569 25.1102 17.8797L31.9852 22.8797C32.5435 23.2858 32.667 24.0675 32.2609 24.6258C31.8549 25.1842 31.0731 25.3076 30.5148 24.9016L24.3864 20.4446L23.1227 21.3924C22.0402 22.2003 20.7257 22.6367 19.375 22.6367C18.0243 22.6367 16.7098 22.2003 15.6274 21.3924L15.6191 21.3862L14.7754 20.7456C14.4918 20.53 14.2566 20.2561 14.0866 19.943C13.9166 19.63 13.815 19.2844 13.7885 18.9291C13.7621 18.5738 13.8115 18.217 13.9333 17.8822C14.0551 17.5474 14.2467 17.2424 14.4952 16.9872L14.5079 16.9744L20.6339 10.8639C20.8655 10.6335 21.1403 10.451 21.4425 10.3269C21.7439 10.2031 22.0666 10.1398 22.3925 10.1406C22.3933 10.1406 22.3942 10.1406 22.395 10.1406L22.3906 11.3906V10.1406H22.3925H28.75C29.4404 10.1406 30 10.7003 30 11.3906C30 12.081 29.4404 12.6406 28.75 12.6406H22.3928Z" fill="white"/>
<path fill-rule="evenodd" clip-rule="evenodd" d="M19.7039 10.0766L25.1084 12.5289C25.7371 12.8142 26.478 12.5358 26.7633 11.9071C27.0485 11.2785 26.7701 10.5376 26.1415 10.2523L20.7352 7.7992L20.7335 7.79843C20.1935 7.55438 19.5844 7.51008 19.0148 7.67343L10.9929 10.019C10.3303 10.2127 9.9502 10.9069 10.1439 11.5696C10.3377 12.2322 11.0319 12.6123 11.6945 12.4185L19.7039 10.0766Z" fill="white"/>
<path fill-rule="evenodd" clip-rule="evenodd" d="M7.80568 27.931C8.258 27.4095 9.04746 27.3534 9.569 27.8057L13.0959 30.8644C13.0983 30.865 13.1006 30.8656 13.1029 30.8662L17.806 32.0537C18.4754 32.2227 18.881 32.9023 18.712 33.5716C18.543 34.241 17.8634 34.6466 17.194 34.4776L12.5034 33.2932C12.115 33.2024 11.7553 33.0163 11.4566 32.7519L7.93104 29.6943C7.4095 29.242 7.35337 28.4526 7.80568 27.931Z" fill="white"/>
</svg>
