<svg width="40" height="40" viewBox="0 0 40 40" fill="none" xmlns="http://www.w3.org/2000/svg">
<path fill-rule="evenodd" clip-rule="evenodd" d="M20 6.25C12.4061 6.25 6.25 12.4061 6.25 20C6.25 27.5939 12.4061 33.75 20 33.75C27.5939 33.75 33.75 27.5939 33.75 20C33.75 12.4061 27.5939 6.25 20 6.25ZM3.75 20C3.75 11.0254 11.0254 3.75 20 3.75C28.9746 3.75 36.25 11.0254 36.25 20C36.25 28.9746 28.9746 36.25 20 36.25C11.0254 36.25 3.75 28.9746 3.75 20Z" fill="white"/>
<path d="M14.375 18.75C15.4105 18.75 16.25 17.9105 16.25 16.875C16.25 15.8395 15.4105 15 14.375 15C13.3395 15 12.5 15.8395 12.5 16.875C12.5 17.9105 13.3395 18.75 14.375 18.75Z" fill="white"/>
<path d="M25.625 18.75C26.6605 18.75 27.5 17.9105 27.5 16.875C27.5 15.8395 26.6605 15 25.625 15C24.5895 15 23.75 15.8395 23.75 16.875C23.75 17.9105 24.5895 18.75 25.625 18.75Z" fill="white"/>
<path fill-rule="evenodd" clip-rule="evenodd" d="M12.8725 22.6689C13.4695 22.3223 14.2345 22.5254 14.581 23.1225C15.1319 24.0716 15.9224 24.8593 16.8734 25.4069C17.8244 25.9545 18.9026 26.2427 20 26.2427C21.0973 26.2427 22.1755 25.9545 23.1265 25.4069C24.0775 24.8593 24.868 24.0716 25.4189 23.1225C25.7654 22.5254 26.5304 22.3223 27.1275 22.6689C27.7245 23.0155 27.9276 23.7804 27.581 24.3775C26.8103 25.7053 25.7044 26.8074 24.374 27.5734C23.0435 28.3395 21.5352 28.7427 20 28.7427C18.4647 28.7427 16.9564 28.3395 15.6259 27.5734C14.2955 26.8074 13.1896 25.7053 12.4189 24.3775C12.0723 23.7804 12.2754 23.0155 12.8725 22.6689Z" fill="white"/>
</svg>
