<svg width="40" height="40" viewBox="0 0 40 40" fill="none" xmlns="http://www.w3.org/2000/svg">
<path fill-rule="evenodd" clip-rule="evenodd" d="M12.5 22.5C10.4289 22.5 8.75 24.1789 8.75 26.25C8.75 28.3211 10.4289 30 12.5 30C14.5711 30 16.25 28.3211 16.25 26.25C16.25 24.1789 14.5711 22.5 12.5 22.5ZM6.25 26.25C6.25 22.7982 9.04822 20 12.5 20C15.9518 20 18.75 22.7982 18.75 26.25C18.75 29.7018 15.9518 32.5 12.5 32.5C9.04822 32.5 6.25 29.7018 6.25 26.25Z" fill="white"/>
<path fill-rule="evenodd" clip-rule="evenodd" d="M12.5 32.5C11.2386 32.5 9.99454 32.7937 8.86634 33.3578C7.73814 33.9219 6.75677 34.7409 5.99995 35.75C5.58574 36.3023 4.80224 36.4142 4.24995 36C3.69767 35.5858 3.58574 34.8023 3.99995 34.25C4.98964 32.9304 6.27297 31.8594 7.74831 31.1217C9.22365 30.384 10.8505 30 12.5 30C14.1494 30 15.7763 30.384 17.2516 31.1217C18.7269 31.8594 20.0103 32.9304 21 34.25C21.4142 34.8023 21.3022 35.5858 20.75 36C20.1977 36.4142 19.4142 36.3023 19 35.75C18.2431 34.7409 17.2618 33.9219 16.1336 33.3578C15.0054 32.7937 13.7613 32.5 12.5 32.5Z" fill="white"/>
<path fill-rule="evenodd" clip-rule="evenodd" d="M12.5 6.25C10.4289 6.25 8.75 7.92893 8.75 10C8.75 12.0711 10.4289 13.75 12.5 13.75C14.5711 13.75 16.25 12.0711 16.25 10C16.25 7.92893 14.5711 6.25 12.5 6.25ZM6.25 10C6.25 6.54822 9.04822 3.75 12.5 3.75C15.9518 3.75 18.75 6.54822 18.75 10C18.75 13.4518 15.9518 16.25 12.5 16.25C9.04822 16.25 6.25 13.4518 6.25 10Z" fill="white"/>
<path fill-rule="evenodd" clip-rule="evenodd" d="M12.5 16.25C11.2386 16.25 9.99454 16.5437 8.86634 17.1078C7.73814 17.6719 6.75677 18.4909 5.99995 19.5C5.58574 20.0523 4.80224 20.1642 4.24995 19.75C3.69767 19.3358 3.58574 18.5523 3.99995 18C4.98964 16.6804 6.27297 15.6094 7.74831 14.8717C9.22365 14.134 10.8505 13.75 12.5 13.75C14.1494 13.75 15.7763 14.134 17.2516 14.8717C18.7269 15.6094 20.0103 16.6804 21 18C21.4142 18.5523 21.3022 19.3358 20.75 19.75C20.1977 20.1642 19.4142 20.0523 19 19.5C18.2431 18.4909 17.2618 17.6719 16.1336 17.1078C15.0054 16.5437 13.7613 16.25 12.5 16.25Z" fill="white"/>
<path fill-rule="evenodd" clip-rule="evenodd" d="M27.5 22.5C25.4289 22.5 23.75 24.1789 23.75 26.25C23.75 28.3211 25.4289 30 27.5 30C29.5711 30 31.25 28.3211 31.25 26.25C31.25 24.1789 29.5711 22.5 27.5 22.5ZM21.25 26.25C21.25 22.7982 24.0482 20 27.5 20C30.9518 20 33.75 22.7982 33.75 26.25C33.75 29.7018 30.9518 32.5 27.5 32.5C24.0482 32.5 21.25 29.7018 21.25 26.25Z" fill="white"/>
<path fill-rule="evenodd" clip-rule="evenodd" d="M27.5 32.5C26.2386 32.5 24.9945 32.7937 23.8663 33.3578C22.7381 33.9219 21.7568 34.7409 21 35.75C20.5857 36.3023 19.8022 36.4142 19.25 36C18.6977 35.5858 18.5857 34.8023 19 34.25C19.9896 32.9304 21.273 31.8594 22.7483 31.1217C24.2236 30.384 25.8505 30 27.5 30C29.1494 30 30.7763 30.384 32.2516 31.1217C33.7269 31.8594 35.0103 32.9304 36 34.25C36.4142 34.8023 36.3022 35.5858 35.75 36C35.1977 36.4142 34.4142 36.3023 34 35.75C33.2431 34.7409 32.2618 33.9219 31.1336 33.3578C30.0054 32.7937 28.7613 32.5 27.5 32.5Z" fill="white"/>
<path fill-rule="evenodd" clip-rule="evenodd" d="M27.5 6.25C25.4289 6.25 23.75 7.92893 23.75 10C23.75 12.0711 25.4289 13.75 27.5 13.75C29.5711 13.75 31.25 12.0711 31.25 10C31.25 7.92893 29.5711 6.25 27.5 6.25ZM21.25 10C21.25 6.54822 24.0482 3.75 27.5 3.75C30.9518 3.75 33.75 6.54822 33.75 10C33.75 13.4518 30.9518 16.25 27.5 16.25C24.0482 16.25 21.25 13.4518 21.25 10Z" fill="white"/>
<path fill-rule="evenodd" clip-rule="evenodd" d="M27.5 16.25C26.2386 16.25 24.9945 16.5437 23.8663 17.1078C22.7381 17.6719 21.7568 18.4909 21 19.5C20.5857 20.0523 19.8022 20.1642 19.25 19.75C18.6977 19.3358 18.5857 18.5523 19 18C19.9896 16.6804 21.273 15.6094 22.7483 14.8717C24.2236 14.134 25.8505 13.75 27.5 13.75C29.1494 13.75 30.7763 14.134 32.2516 14.8717C33.7269 15.6094 35.0103 16.6804 36 18C36.4142 18.5523 36.3022 19.3358 35.75 19.75C35.1977 20.1642 34.4142 20.0523 34 19.5C33.2431 18.4909 32.2618 17.6719 31.1336 17.1078C30.0054 16.5437 28.7613 16.25 27.5 16.25Z" fill="white"/>
</svg>
