<svg width="18" height="25" viewBox="0 0 18 25" fill="none" xmlns="http://www.w3.org/2000/svg">
<path fill-rule="evenodd" clip-rule="evenodd" d="M0.585787 0.585779C0.960859 0.210707 1.46957 -7.62939e-06 2 -7.62939e-06H16C16.5304 -7.62939e-06 17.0391 0.210706 17.4142 0.585779C17.7893 0.960853 18 1.46956 18 1.99999V24C18 24.3635 17.8027 24.6984 17.4848 24.8746C17.1668 25.0509 16.7783 25.0407 16.47 24.848L9 20.1792L1.53 24.848C1.22173 25.0407 0.833186 25.0509 0.515231 24.8746C0.197277 24.6984 0 24.3635 0 24V1.99999C0 1.46956 0.210714 0.960851 0.585787 0.585779ZM16 1.99999H2L2 22.1957L8.47 18.152C8.79427 17.9493 9.20573 17.9493 9.53 18.152L16 22.1957V1.99999Z" fill="#FFCB05"/>
</svg>
