<svg width="60" height="60" viewBox="0 0 60 60" fill="none" xmlns="http://www.w3.org/2000/svg">
<g clip-path="url(#clip0_2_218)">
<path d="M0 30C0 13.4315 13.4315 0 30 0C46.5685 0 60 13.4315 60 30C60 46.5685 46.5685 60 30 60C13.4315 60 0 46.5685 0 30Z" fill="url(#paint0_linear_2_218)"/>
<path d="M36.4 35.2V39.6C36.4 40.0356 30 41.3544 30 41.3544C30 41.3544 23.6 40.2214 23.6 39.6C23.6 38.424 23.624 32.52 23.6 27.0376C20.7336 23.3222 20.7336 21 23 18.6C25.2664 16.2 41.4 15 41.4 15C41.4 15 42.6104 26.642 42.8 29.8C42.8762 31.07 43.7 35.2 40.5 35.2H36.4Z" fill="url(#paint1_linear_2_218)"/>
<path d="M36.4 34.8246V37.232C32.1135 36.4685 29.6468 34.8579 29 32.4C30.8667 33.6667 33.2667 34.4667 36.2 34.8C36.2667 34.8076 36.3333 34.8158 36.4 34.8246Z" fill="#DE6530"/>
<path d="M51 48.6616C52.2693 51.2425 53.2693 55.5092 54 61.4616H6C6.73093 55.5085 7.73093 51.2419 9 48.6616C10.2648 46.0898 22 41.1398 22 41.1398L38 41.1384C38 41.1384 49.7376 46.095 51 48.6616Z" fill="#00274C"/>
<path d="M31.4 42.4L32.4 60.8H27.6L28.6 42.4C28.6 42.4 29.5334 41.4 30 41.4C30.4666 41.4 31.4 42.4 31.4 42.4Z" fill="url(#paint2_linear_2_218)"/>
<path d="M31.6024 46.1236L28.4952 44.3284L28.6 42.4C29.2222 41.7333 29.6889 41.4 30 41.4C30.311 41.4 30.7777 41.7333 31.4 42.4L31.6024 46.1236Z" fill="#D24B24"/>
<path d="M30 41.3982L28 45L21.8 41.2L23.6 38.6L30 40.9642L36.4 38.6L38.2 41.2L32 45L30 41.3982Z" fill="white"/>
<path d="M26.204 21.0412C25.568 20.495 24.7952 20.1272 23.7028 20.6948C21.113 22.0394 22.8318 27.227 25.73 27.1258C26.73 27.091 26.2716 29.0838 23.6 30.4C23.6 28.3 20.4 23.1 20.12 18.3656C16.9 17.1666 17.7 12.3692 19.9106 12.3692C19.5578 7.971 26.6 5.6994 29.3268 8.2232C32.1 4.8994 39.1 6.5994 39.5226 9.483C44.336 6.9136 47.5 14.2994 42.993 17.1666C41.1384 18.3466 36.8 18.7956 30.5374 18.7956C27.5322 18.7956 29.2604 25.8296 30.2 28.1C31.4 31 38.1 31.4 40.2 31.1C41.84 30.8658 42.7 30.2 42.8 29.8C44.3 33.8 42.4 36.2 39.4 36.2C34.3 36.2 29.2 34.7 28.4 31C27.7632 28.0554 27.7982 23.3032 26.204 21.0412Z" fill="#00274C"/>
</g>
<defs>
<linearGradient id="paint0_linear_2_218" x1="30" y1="60" x2="30" y2="0" gradientUnits="userSpaceOnUse">
<stop stop-color="#FFC9B3"/>
<stop offset="1" stop-color="#FFD2C2"/>
</linearGradient>
<linearGradient id="paint1_linear_2_218" x1="32.1595" y1="15" x2="32.1595" y2="41.3544" gradientUnits="userSpaceOnUse">
<stop stop-color="#E6864E"/>
<stop offset="1" stop-color="#EB965E"/>
</linearGradient>
<linearGradient id="paint2_linear_2_218" x1="30" y1="60.8" x2="30" y2="41.4" gradientUnits="userSpaceOnUse">
<stop stop-color="#E6864E"/>
<stop offset="1" stop-color="#E67240"/>
</linearGradient>
<clipPath id="clip0_2_218">
<path d="M0 30C0 13.4315 13.4315 0 30 0C46.5685 0 60 13.4315 60 30C60 46.5685 46.5685 60 30 60C13.4315 60 0 46.5685 0 30Z" fill="white"/>
</clipPath>
</defs>
</svg>
