<svg width="60" height="60" viewBox="0 0 60 60" fill="none" xmlns="http://www.w3.org/2000/svg">
<g clip-path="url(#clip0_2_205)">
<path d="M0 30C0 13.4315 13.4315 0 30 0C46.5685 0 60 13.4315 60 30C60 46.5685 46.5685 60 30 60C13.4315 60 0 46.5685 0 30Z" fill="url(#paint0_linear_2_205)"/>
<path d="M48.4 48.6C49.8666 51.4 50.6 61.6 50.6 61.6H9.39996C9.39996 61.6 10.1334 51.4 11.6 48.6C13.8 44.4 30 39 30 39C30 39 46.2 44.4 48.4 48.6Z" fill="url(#paint1_linear_2_205)"/>
<path opacity="0.4" d="M48.8 59.8C48.8 59.5627 48.8704 59.3306 49.0022 59.1333C49.1341 58.936 49.3215 58.7822 49.5408 58.6913C49.76 58.6005 50.0013 58.5767 50.2341 58.6231C50.4669 58.6694 50.6807 58.7836 50.8485 58.9515C51.0163 59.1193 51.1306 59.3331 51.1769 59.5659C51.2232 59.7987 51.1995 60.0399 51.1086 60.2592C51.0178 60.4785 50.864 60.6659 50.6667 60.7978C50.4693 60.9296 50.2373 61 50 61C49.6817 61 49.3765 60.8736 49.1515 60.6485C48.9264 60.4235 48.8 60.1183 48.8 59.8ZM40.8 59.8C40.8 59.5627 40.8704 59.3306 41.0022 59.1333C41.1341 58.936 41.3215 58.7822 41.5408 58.6913C41.76 58.6005 42.0013 58.5767 42.2341 58.6231C42.4669 58.6694 42.6807 58.7836 42.8485 58.9515C43.0163 59.1193 43.1306 59.3331 43.1769 59.5659C43.2232 59.7987 43.1995 60.0399 43.1086 60.2592C43.0178 60.4785 42.864 60.6659 42.6667 60.7978C42.4693 60.9296 42.2373 61 42 61C41.6817 61 41.3765 60.8736 41.1515 60.6485C40.9264 60.4235 40.8 60.1183 40.8 59.8ZM32.8 59.8C32.8 59.5627 32.8704 59.3306 33.0022 59.1333C33.1341 58.936 33.3215 58.7822 33.5408 58.6913C33.76 58.6005 34.0013 58.5767 34.2341 58.6231C34.4669 58.6694 34.6807 58.7836 34.8485 58.9515C35.0163 59.1193 35.1306 59.3331 35.1769 59.5659C35.2232 59.7987 35.1995 60.0399 35.1086 60.2592C35.0178 60.4785 34.864 60.6659 34.6667 60.7978C34.4693 60.9296 34.2373 61 34 61C33.6817 61 33.3765 60.8736 33.1515 60.6485C32.9264 60.4235 32.8 60.1183 32.8 59.8ZM24.8 59.8C24.8 59.5627 24.8704 59.3306 25.0022 59.1333C25.1341 58.936 25.3215 58.7822 25.5408 58.6913C25.76 58.6005 26.0013 58.5767 26.2341 58.6231C26.4669 58.6694 26.6807 58.7836 26.8485 58.9515C27.0163 59.1193 27.1306 59.3331 27.1769 59.5659C27.2232 59.7987 27.1995 60.0399 27.1086 60.2592C27.0178 60.4785 26.864 60.6659 26.6667 60.7978C26.4693 60.9296 26.2373 61 26 61C25.6817 61 25.3765 60.8736 25.1515 60.6485C24.9264 60.4235 24.8 60.1183 24.8 59.8ZM16.8 59.8C16.8 59.5627 16.8704 59.3306 17.0022 59.1333C17.1341 58.936 17.3215 58.7822 17.5408 58.6913C17.76 58.6005 18.0013 58.5767 18.2341 58.6231C18.4669 58.6694 18.6807 58.7836 18.8485 58.9515C19.0163 59.1193 19.1306 59.3331 19.1769 59.5659C19.2232 59.7987 19.1995 60.0399 19.1086 60.2592C19.0178 60.4785 18.864 60.6659 18.6667 60.7978C18.4693 60.9296 18.2373 61 18 61C17.6817 61 17.3765 60.8736 17.1515 60.6485C16.9264 60.4235 16.8 60.1183 16.8 59.8ZM8.79999 59.8C8.79999 59.5627 8.87037 59.3306 9.00222 59.1333C9.13408 58.936 9.3215 58.7822 9.54077 58.6913C9.76004 58.6005 10.0013 58.5767 10.2341 58.6231C10.4669 58.6694 10.6807 58.7836 10.8485 58.9515C11.0163 59.1193 11.1306 59.3331 11.1769 59.5659C11.2232 59.7987 11.1995 60.0399 11.1086 60.2592C11.0178 60.4785 10.864 60.6659 10.6667 60.7978C10.4693 60.9296 10.2373 61 9.99999 61C9.68173 61 9.3765 60.8736 9.15146 60.6485C8.92642 60.4235 8.79999 60.1183 8.79999 59.8V59.8ZM44.8 55.8C44.8 55.5627 44.8704 55.3306 45.0022 55.1333C45.1341 54.936 45.3215 54.7822 45.5408 54.6913C45.76 54.6005 46.0013 54.5767 46.2341 54.6231C46.4669 54.6694 46.6807 54.7836 46.8485 54.9515C47.0163 55.1193 47.1306 55.3331 47.1769 55.5659C47.2232 55.7987 47.1995 56.0399 47.1086 56.2592C47.0178 56.4785 46.864 56.6659 46.6667 56.7978C46.4693 56.9296 46.2373 57 46 57C45.6817 57 45.3765 56.8736 45.1515 56.6485C44.9264 56.4235 44.8 56.1183 44.8 55.8ZM36.8 55.8C36.8 55.5627 36.8704 55.3306 37.0022 55.1333C37.1341 54.936 37.3215 54.7822 37.5408 54.6913C37.76 54.6005 38.0013 54.5767 38.2341 54.6231C38.4669 54.6694 38.6807 54.7836 38.8485 54.9515C39.0163 55.1193 39.1306 55.3331 39.1769 55.5659C39.2232 55.7987 39.1995 56.0399 39.1086 56.2592C39.0178 56.4785 38.864 56.6659 38.6667 56.7978C38.4693 56.9296 38.2373 57 38 57C37.6817 57 37.3765 56.8736 37.1515 56.6485C36.9264 56.4235 36.8 56.1183 36.8 55.8ZM28.8 55.8C28.8 55.5627 28.8704 55.3306 29.0022 55.1333C29.1341 54.936 29.3215 54.7822 29.5408 54.6913C29.76 54.6005 30.0013 54.5767 30.2341 54.6231C30.4669 54.6694 30.6807 54.7836 30.8485 54.9515C31.0163 55.1193 31.1306 55.3331 31.1769 55.5659C31.2232 55.7987 31.1995 56.0399 31.1086 56.2592C31.0178 56.4785 30.864 56.6659 30.6667 56.7978C30.4693 56.9296 30.2373 57 30 57C29.6817 57 29.3765 56.8736 29.1515 56.6485C28.9264 56.4235 28.8 56.1183 28.8 55.8ZM20.8 55.8C20.8 55.5627 20.8704 55.3306 21.0022 55.1333C21.1341 54.936 21.3215 54.7822 21.5408 54.6913C21.76 54.6005 22.0013 54.5767 22.2341 54.6231C22.4669 54.6694 22.6807 54.7836 22.8485 54.9515C23.0163 55.1193 23.1306 55.3331 23.1769 55.5659C23.2232 55.7987 23.1995 56.0399 23.1086 56.2592C23.0178 56.4785 22.864 56.6659 22.6667 56.7978C22.4693 56.9296 22.2373 57 22 57C21.6817 57 21.3765 56.8736 21.1515 56.6485C20.9264 56.4235 20.8 56.1183 20.8 55.8ZM12.8 55.8C12.8 55.5627 12.8704 55.3306 13.0022 55.1333C13.1341 54.936 13.3215 54.7822 13.5408 54.6913C13.76 54.6005 14.0013 54.5767 14.2341 54.6231C14.4669 54.6694 14.6807 54.7836 14.8485 54.9515C15.0163 55.1193 15.1306 55.3331 15.1769 55.5659C15.2232 55.7987 15.1995 56.0399 15.1086 56.2592C15.0178 56.4785 14.864 56.6659 14.6667 56.7978C14.4693 56.9296 14.2373 57 14 57C13.6817 57 13.3765 56.8736 13.1515 56.6485C12.9264 56.4235 12.8 56.1183 12.8 55.8ZM48.8 51.8C48.8 51.5627 48.8704 51.3306 49.0022 51.1333C49.1341 50.936 49.3215 50.7822 49.5408 50.6913C49.76 50.6005 50.0013 50.5767 50.2341 50.623C50.4669 50.6694 50.6807 50.7836 50.8485 50.9515C51.0163 51.1193 51.1306 51.3331 51.1769 51.5659C51.2232 51.7987 51.1995 52.0399 51.1086 52.2592C51.0178 52.4785 50.864 52.6659 50.6667 52.7978C50.4693 52.9296 50.2373 53 50 53C49.6817 53 49.3765 52.8736 49.1515 52.6485C48.9264 52.4235 48.8 52.1183 48.8 51.8ZM40.8 51.8C40.8 51.5627 40.8704 51.3306 41.0022 51.1333C41.1341 50.936 41.3215 50.7822 41.5408 50.6913C41.76 50.6005 42.0013 50.5767 42.2341 50.623C42.4669 50.6694 42.6807 50.7836 42.8485 50.9515C43.0163 51.1193 43.1306 51.3331 43.1769 51.5659C43.2232 51.7987 43.1995 52.0399 43.1086 52.2592C43.0178 52.4785 42.864 52.6659 42.6667 52.7978C42.4693 52.9296 42.2373 53 42 53C41.6817 53 41.3765 52.8736 41.1515 52.6485C40.9264 52.4235 40.8 52.1183 40.8 51.8ZM32.8 51.8C32.8 51.5627 32.8704 51.3306 33.0022 51.1333C33.1341 50.936 33.3215 50.7822 33.5408 50.6913C33.76 50.6005 34.0013 50.5767 34.2341 50.623C34.4669 50.6694 34.6807 50.7836 34.8485 50.9515C35.0163 51.1193 35.1306 51.3331 35.1769 51.5659C35.2232 51.7987 35.1995 52.0399 35.1086 52.2592C35.0178 52.4785 34.864 52.6659 34.6667 52.7978C34.4693 52.9296 34.2373 53 34 53C33.6817 53 33.3765 52.8736 33.1515 52.6485C32.9264 52.4235 32.8 52.1183 32.8 51.8ZM24.8 51.8C24.8 51.5627 24.8704 51.3306 25.0022 51.1333C25.1341 50.936 25.3215 50.7822 25.5408 50.6913C25.76 50.6005 26.0013 50.5767 26.2341 50.623C26.4669 50.6694 26.6807 50.7836 26.8485 50.9515C27.0163 51.1193 27.1306 51.3331 27.1769 51.5659C27.2232 51.7987 27.1995 52.0399 27.1086 52.2592C27.0178 52.4785 26.864 52.6659 26.6667 52.7978C26.4693 52.9296 26.2373 53 26 53C25.6817 53 25.3765 52.8736 25.1515 52.6485C24.9264 52.4235 24.8 52.1183 24.8 51.8ZM16.8 51.8C16.8 51.5627 16.8704 51.3306 17.0022 51.1333C17.1341 50.936 17.3215 50.7822 17.5408 50.6913C17.76 50.6005 18.0013 50.5767 18.2341 50.623C18.4669 50.6694 18.6807 50.7836 18.8485 50.9515C19.0163 51.1193 19.1306 51.3331 19.1769 51.5659C19.2232 51.7987 19.1995 52.0399 19.1086 52.2592C19.0178 52.4785 18.864 52.6659 18.6667 52.7978C18.4693 52.9296 18.2373 53 18 53C17.6817 53 17.3765 52.8736 17.1515 52.6485C16.9264 52.4235 16.8 52.1183 16.8 51.8ZM8.79999 51.8C8.79999 51.5627 8.87037 51.3306 9.00222 51.1333C9.13408 50.936 9.3215 50.7822 9.54077 50.6913C9.76004 50.6005 10.0013 50.5767 10.2341 50.623C10.4669 50.6694 10.6807 50.7836 10.8485 50.9515C11.0163 51.1193 11.1306 51.3331 11.1769 51.5659C11.2232 51.7987 11.1995 52.0399 11.1086 52.2592C11.0178 52.4785 10.864 52.6659 10.6667 52.7978C10.4693 52.9296 10.2373 53 9.99999 53C9.68173 53 9.3765 52.8736 9.15146 52.6485C8.92642 52.4235 8.79999 52.1183 8.79999 51.8V51.8ZM44.8 47.8C44.8 47.5627 44.8704 47.3306 45.0022 47.1333C45.1341 46.936 45.3215 46.7822 45.5408 46.6913C45.76 46.6005 46.0013 46.5767 46.2341 46.623C46.4669 46.6694 46.6807 46.7836 46.8485 46.9515C47.0163 47.1193 47.1306 47.3331 47.1769 47.5659C47.2232 47.7987 47.1995 48.0399 47.1086 48.2592C47.0178 48.4785 46.864 48.6659 46.6667 48.7978C46.4693 48.9296 46.2373 49 46 49C45.6817 49 45.3765 48.8736 45.1515 48.6485C44.9264 48.4235 44.8 48.1183 44.8 47.8ZM36.8 47.8C36.8 47.5627 36.8704 47.3306 37.0022 47.1333C37.1341 46.936 37.3215 46.7822 37.5408 46.6913C37.76 46.6005 38.0013 46.5767 38.2341 46.623C38.4669 46.6694 38.6807 46.7836 38.8485 46.9515C39.0163 47.1193 39.1306 47.3331 39.1769 47.5659C39.2232 47.7987 39.1995 48.0399 39.1086 48.2592C39.0178 48.4785 38.864 48.6659 38.6667 48.7978C38.4693 48.9296 38.2373 49 38 49C37.6817 49 37.3765 48.8736 37.1515 48.6485C36.9264 48.4235 36.8 48.1183 36.8 47.8ZM28.8 47.8C28.8 47.5627 28.8704 47.3306 29.0022 47.1333C29.1341 46.936 29.3215 46.7822 29.5408 46.6913C29.76 46.6005 30.0013 46.5767 30.2341 46.623C30.4669 46.6694 30.6807 46.7836 30.8485 46.9515C31.0163 47.1193 31.1306 47.3331 31.1769 47.5659C31.2232 47.7987 31.1995 48.0399 31.1086 48.2592C31.0178 48.4785 30.864 48.6659 30.6667 48.7978C30.4693 48.9296 30.2373 49 30 49C29.6817 49 29.3765 48.8736 29.1515 48.6485C28.9264 48.4235 28.8 48.1183 28.8 47.8ZM20.8 47.8C20.8 47.5627 20.8704 47.3306 21.0022 47.1333C21.1341 46.936 21.3215 46.7822 21.5408 46.6913C21.76 46.6005 22.0013 46.5767 22.2341 46.623C22.4669 46.6694 22.6807 46.7836 22.8485 46.9515C23.0163 47.1193 23.1306 47.3331 23.1769 47.5659C23.2232 47.7987 23.1995 48.0399 23.1086 48.2592C23.0178 48.4785 22.864 48.6659 22.6667 48.7978C22.4693 48.9296 22.2373 49 22 49C21.6817 49 21.3765 48.8736 21.1515 48.6485C20.9264 48.4235 20.8 48.1183 20.8 47.8ZM12.8 47.8C12.8 47.5627 12.8704 47.3306 13.0022 47.1333C13.1341 46.936 13.3215 46.7822 13.5408 46.6913C13.76 46.6005 14.0013 46.5767 14.2341 46.623C14.4669 46.6694 14.6807 46.7836 14.8485 46.9515C15.0163 47.1193 15.1306 47.3331 15.1769 47.5659C15.2232 47.7987 15.1995 48.0399 15.1086 48.2592C15.0178 48.4785 14.864 48.6659 14.6667 48.7978C14.4693 48.9296 14.2373 49 14 49C13.6817 49 13.3765 48.8736 13.1515 48.6485C12.9264 48.4235 12.8 48.1183 12.8 47.8ZM48.8 43.8C48.8 43.5627 48.8704 43.3306 49.0022 43.1333C49.1341 42.936 49.3215 42.7822 49.5408 42.6913C49.76 42.6005 50.0013 42.5767 50.2341 42.623C50.4669 42.6694 50.6807 42.7836 50.8485 42.9515C51.0163 43.1193 51.1306 43.3331 51.1769 43.5659C51.2232 43.7987 51.1995 44.0399 51.1086 44.2592C51.0178 44.4785 50.864 44.6659 50.6667 44.7978C50.4693 44.9296 50.2373 45 50 45C49.6817 45 49.3765 44.8736 49.1515 44.6485C48.9264 44.4235 48.8 44.1183 48.8 43.8ZM40.8 43.8C40.8 43.5627 40.8704 43.3306 41.0022 43.1333C41.1341 42.936 41.3215 42.7822 41.5408 42.6913C41.76 42.6005 42.0013 42.5767 42.2341 42.623C42.4669 42.6694 42.6807 42.7836 42.8485 42.9515C43.0163 43.1193 43.1306 43.3331 43.1769 43.5659C43.2232 43.7987 43.1995 44.0399 43.1086 44.2592C43.0178 44.4785 42.864 44.6659 42.6667 44.7978C42.4693 44.9296 42.2373 45 42 45C41.6817 45 41.3765 44.8736 41.1515 44.6485C40.9264 44.4235 40.8 44.1183 40.8 43.8ZM16.8 43.8C16.8 43.5627 16.8704 43.3306 17.0022 43.1333C17.1341 42.936 17.3215 42.7822 17.5408 42.6913C17.76 42.6005 18.0013 42.5767 18.2341 42.623C18.4669 42.6694 18.6807 42.7836 18.8485 42.9515C19.0163 43.1193 19.1306 43.3331 19.1769 43.5659C19.2232 43.7987 19.1995 44.0399 19.1086 44.2592C19.0178 44.4785 18.864 44.6659 18.6667 44.7978C18.4693 44.9296 18.2373 45 18 45C17.6817 45 17.3765 44.8736 17.1515 44.6485C16.9264 44.4235 16.8 44.1183 16.8 43.8ZM8.79999 43.8C8.79999 43.5627 8.87037 43.3306 9.00222 43.1333C9.13408 42.936 9.3215 42.7822 9.54077 42.6913C9.76004 42.6005 10.0013 42.5767 10.2341 42.623C10.4669 42.6694 10.6807 42.7836 10.8485 42.9515C11.0163 43.1193 11.1306 43.3331 11.1769 43.5659C11.2232 43.7987 11.1995 44.0399 11.1086 44.2592C11.0178 44.4785 10.864 44.6659 10.6667 44.7978C10.4693 44.9296 10.2373 45 9.99999 45C9.68173 45 9.3765 44.8736 9.15146 44.6485C8.92642 44.4235 8.79999 44.1183 8.79999 43.8V43.8Z" fill="#13001E"/>
<path d="M32.1728 10.54C31.3728 7.03998 35.1662 4.35418 39.0728 6.19798C48.2728 10.54 42.8 16.6 39.4 16.2C36 15.8 32.9728 14.04 32.1728 10.54Z" fill="url(#paint2_linear_2_205)"/>
<g style="mix-blend-mode:multiply" opacity="0.6">
<path d="M35.5 11.1C35.5 11.1 42.3 15.5 44 13.1C44.1754 14.1022 43.3688 16.933 42.1 16.9C38.3046 16.8012 35.5 11.1 35.5 11.1Z" fill="#E0713F"/>
</g>
<path d="M34.4 32.6C30.1034 34.6642 29.4766 34.5536 20 26.8C5.69999 15.1 19.2 4.39996 33.7 10.1C49.4 17 44.1402 27.9214 34.4 32.6Z" fill="url(#paint3_linear_2_205)"/>
<path d="M34.8002 40.8C33.3336 43.2 26.6668 43.2 25.2002 40.8V36.8C25.2002 36.8 24.5476 36.82 24.1002 36.8C19.422 36.6 17.8588 29.0746 18.593 21.5476C19.1306 16.0352 23.8002 23.6 31.4002 18.3C31.1002 24.1 33.6002 23.5 34.7002 22.8C39.7002 20.5 39.742 29.9284 34.8002 29.2V40.8Z" fill="url(#paint4_linear_2_205)"/>
<path d="M25.2001 36.799C27.8991 36.5986 31.9239 33.7792 31.9239 33.7792C31.9239 33.7792 29.9985 37.898 25.2004 38.5982L25.2001 36.799Z" fill="#FFBB94"/>
<path d="M34.8 40.292V39C35.1668 39 36.217 39.8664 36.7572 40.6C38.8924 43.5 36.524 46.1 34.5924 46.1C32.1552 46.1 30.54 44.0636 30 43.084C29.46 44.064 27.8448 46.1 25.4076 46.1C23.476 46.1 21.1076 43.5 23.2428 40.6C23.783 39.8664 24.8332 39 25.2 39V40.292C25.2 41.8216 28.548 42.5296 29.9934 42.595C31.3616 42.5296 34.8 41.8216 34.8 40.292Z" fill="#FFF9F5"/>
<path d="M32.518 14.2856C29.318 22.2856 31.118 26.1856 33.618 30.8856C36.118 35.5856 33.018 39.9856 33.018 39.9856C33.018 39.9856 36.618 37.6856 36.618 32.5856C36.618 27.4856 33.018 24.2856 36.018 20.0856C39.018 15.8856 35.718 6.28559 32.518 14.2856Z" fill="url(#paint5_linear_2_205)"/>
</g>
<defs>
<linearGradient id="paint0_linear_2_205" x1="30" y1="0" x2="30" y2="60" gradientUnits="userSpaceOnUse">
<stop stop-color="#1D0024"/>
<stop offset="1" stop-color="#100014"/>
</linearGradient>
<linearGradient id="paint1_linear_2_205" x1="30" y1="39" x2="30" y2="61.6" gradientUnits="userSpaceOnUse">
<stop stop-color="#806A6A"/>
<stop offset="1" stop-color="#665654"/>
</linearGradient>
<linearGradient id="paint2_linear_2_205" x1="38.1043" y1="16.2188" x2="38.1043" y2="5.59901" gradientUnits="userSpaceOnUse">
<stop stop-color="#E6864E"/>
<stop offset="1" stop-color="#E67240"/>
</linearGradient>
<linearGradient id="paint3_linear_2_205" x1="28.7888" y1="33.7367" x2="28.7888" y2="8.52142" gradientUnits="userSpaceOnUse">
<stop stop-color="#814A2B"/>
<stop offset="1" stop-color="#974A28"/>
</linearGradient>
<linearGradient id="paint4_linear_2_205" x1="28.4494" y1="18.3" x2="28.4494" y2="42.6" gradientUnits="userSpaceOnUse">
<stop stop-color="#FFD4B3"/>
<stop offset="1" stop-color="#FFDCC2"/>
</linearGradient>
<linearGradient id="paint5_linear_2_205" x1="33.9984" y1="39.9856" x2="33.9984" y2="11.2" gradientUnits="userSpaceOnUse">
<stop stop-color="#E6864E"/>
<stop offset="1" stop-color="#E57442"/>
</linearGradient>
<clipPath id="clip0_2_205">
<path d="M0 30C0 13.4315 13.4315 0 30 0C46.5685 0 60 13.4315 60 30C60 46.5685 46.5685 60 30 60C13.4315 60 0 46.5685 0 30Z" fill="white"/>
</clipPath>
</defs>
</svg>
